<svg version="1.1" id="Слой_1" xmlns="http://www.w3.org/2000/svg" x="0" y="0" viewBox="0 0 192 38" xml:space="preserve"><style>.st0{fill:#fdc305}.st1{fill:#f06351}.st2{fill:#111}</style><path class="st0" d="M6.4 20.7l.1-2.3c6.7-.9 13.4-1.4 20.2-1.3 0 .6 0 1.2-.1 1.8 0 0 2.9-1.3 6-1.8C30.2 10.8 24.2 6.3 17 6.3 8.7 6.3 1.8 12.4.5 20.4c2.2.1 5.9.3 5.9.3zM27.6 24.2c-1.2 1.3-1.4 1.2-1.4 3.5v9.2c4.5-3 7.4-8.1 7.4-13.9 0-1.1-.1-2.1-.3-3.1-1.7 1.1-4.7 3.2-5.7 4.3zM6.7 25.7s-3.8-1.4-5.2-1.8l-1.2-.3c.2 6 3.7 11.3 8.7 14L6.7 25.7z"/><path class="st1" d="M26.6 17.1C26.7 8.6 25.2.6 25.2.6s-.1-1.3-.9-.2c-.7 1.1-1.2 3.9-1.2 3.9-7.4-.4-12.8.3-12.8.3C9.6 2 8.2.8 7.5 1c-.6.3-.7 3.4-.7 3.4l-.3 14.1c6.6-1 13.4-1.4 20.1-1.4z"/><path d="M12.8 14c0-.1 1 .7 1.4.9.4.2.6.4.6.6 0 .2-.3.3-.6.3-.4 0-.9-.1-1-.3h1.2c0 .1-1.4-1-1.6-1.5zM20.2 14.1s-1 1.3-1.1 1.3c0 .1-.2.3.2.3s1.1-.2 1.2-.3c.1-.1.1-.2-.1-.2s-.7 0-1 .1l.8-1.2c.1 0 .1-.1 0 0zM17.1 20.2s.8-.4 1.1-1c.3-.7 0-.9-.4-1-.5-.1-1.3 0-1.7.3-.4.4-.3.7-.1 1 .2.2.8.6 1.1.7z"/><path class="st1" d="M16.7 21.5s-.2.4-.5.6c-.2.2-.6.4-1 .4-.6 0-1.1-.2-1.5-.4-.2-.1-.4-.3-.5-.4-.2-.2-.4-.3-.4-.3s.7 4.1 2.6 4.7c1.8.6 2.1-.7 2.2-1.1 0-.3 0-2.1-.8-3.2 0-.4 0-.2-.1-.3z"/><path d="M15.1 22.6s-.1 0 0 0c-1.3 0-2.3-1.4-2.3-1.4V21h.2s1 1.3 2.1 1.3c.6 0 1.1-.3 1.6-1l.1-.2.1.2s.4.8 1 .8c.5 0 1.1-.4 1.6-1.3 0-.1.1-.1.2 0 .1 0 .1.1 0 .2-.6 1-1.3 1.4-1.9 1.4-.6 0-.9-.5-1.1-.8-.4.7-1 1-1.6 1z"/><path class="st1" d="M26.6 18.9s-2.5 2.2-5.1 5.2-5.3 4.9-5.3 4.9c-.2-.5-1.6-1.5-1.6-1.5s-3.1-2.1-5.2-3.8c-1.2-1-2.3-2.2-3.1-3-.3 0-1.1-.1-2-.1 4.7 7 12 8.8 12 8.8.9-.1 3.3-1.9 5.1-3.3 1.8-1.4 4.8-4.5 5.9-5.9.6-.7.9-1.4 1.1-2-1.1.4-1.8.7-1.8.7z"/><g><path class="st2" d="M92.6 29.6c-.8-1-1.2-2.5-1.2-4.4v-6.3c0-1.9.4-3.4 1.2-4.4.8-1 2.2-1.5 4.1-1.5 1.9 0 3.2.4 4 1.3.8.9 1.2 2.1 1.2 3.8v1.5H98v-1.8c0-.7-.1-1.2-.2-1.6-.1-.4-.5-.5-1.1-.5-.6 0-.9.2-1.1.6-.2.4-.3.9-.3 1.6v8.3c0 .7.1 1.2.3 1.6.2.4.5.6 1.1.6.5 0 .9-.2 1-.6.2-.4.2-.9.2-1.6v-1.8h3.9v1.5c0 1.6-.4 2.9-1.2 3.9-.8.9-2.1 1.4-4 1.4-1.8-.1-3.2-.6-4-1.6zM106.5 13.2h4.5l3.3 17.6h-3.6l-.6-3.7h-2.6l-.6 3.7h-3.7l3.3-17.6zm3.3 11.6l-.9-6.9-.9 6.9h1.8zM117.1 16.1h-2.7v-2.9h9.3v2.9H121v14.7h-4V16.1zM130.9 13.2h6.9V15h-4.4v5.8h3.6v1.7h-3.6v6.4h4.5v1.8h-7V13.2zM139.8 13.2h1.7l5.1 11.7V13.2h2.1v17.6h-1.6l-5.1-12v12h-2.1V13.2zM151.2 13.2h6.9V15h-4.4v5.8h3.6v1.7h-3.6v6.4h4.5v1.8h-7V13.2zM160.1 13.2h3.6c1.8 0 3.1.4 4 1.1.8.7 1.3 1.9 1.3 3.6 0 2.3-.7 3.6-2.2 4.1l2.5 8.8h-2.4l-2.3-8.3h-1.9v8.3h-2.5V13.2zm3.5 7.6c1.1 0 1.8-.2 2.3-.6.5-.4.7-1.2.7-2.3 0-.7-.1-1.3-.2-1.7-.2-.4-.4-.7-.9-.9-.4-.2-1-.3-1.7-.3h-1.1v5.8h.9zM172.2 29.5c-.7-1-1.1-2.5-1.1-4.5v-5.9c0-1.4.1-2.5.4-3.4.3-.9.8-1.5 1.5-2s1.7-.7 2.9-.7c1.6 0 2.8.4 3.6 1.2.7.8 1.1 2.1 1.1 3.9v.7h-2.3v-.5c0-.8-.1-1.5-.2-1.9-.1-.5-.3-.8-.7-1-.3-.2-.8-.3-1.5-.3s-1.2.2-1.5.5-.6.7-.7 1.2c-.1.5-.1 1.2-.1 2.1v6.5c0 1.3.2 2.3.5 2.9.3.6 1 .9 1.9.9.9 0 1.6-.3 1.9-1 .3-.6.5-1.7.5-3.1v-1.2h-2.3v-1.7h4.5v8.7H179l-.2-2c-.6 1.5-1.6 2.2-3.2 2.2-1.6-.1-2.7-.6-3.4-1.6zM185.6 24.6l-3.9-11.4h2.3l2.7 8.5 2.7-8.5h2.3L188 24.6v6.2h-2.4v-6.2z"/></g></svg>