<?xml version="1.0" encoding="utf-8"?>
<!-- Generator: Adobe Illustrator 22.1.0, SVG Export Plug-In . SVG Version: 6.00 Build 0)  -->
<svg version="1.1" id="Слой_1" xmlns="http://www.w3.org/2000/svg" xmlns:xlink="http://www.w3.org/1999/xlink" x="0px" y="0px"
	 viewBox="0 0 192 38" style="enable-background:new 0 0 192 38;" xml:space="preserve">
<style type="text/css">
	.st0{fill:#FDC305;}
	.st1{fill:#F06351;}
	.st2{fill:#111111;}
</style>
<g>
	<path class="st0" d="M6.4,20.7l0.1-2.3c6.7-0.9,13.4-1.4,20.2-1.3c0,0.6,0,1.2-0.1,1.8c0,0,2.9-1.3,6-1.8
		C30.2,10.8,24.2,6.3,17,6.3c-8.3,0-15.2,6.1-16.5,14.1C2.7,20.5,6.4,20.7,6.4,20.7z"/>
	<path class="st0" d="M27.6,24.2c-1.2,1.3-1.4,1.2-1.4,3.5c0,0.9,0,4.9,0,9.2c4.5-3,7.4-8.1,7.4-13.9c0-1.1-0.1-2.1-0.3-3.1
		C31.6,21,28.6,23.1,27.6,24.2z"/>
	<path class="st0" d="M6.7,25.7c0,0-3.8-1.4-5.2-1.8c-0.4-0.1-0.8-0.2-1.2-0.3c0.2,6,3.7,11.3,8.7,14L6.7,25.7z"/>
</g>
<path class="st1" d="M26.6,17.1c0.1-8.5-1.4-16.5-1.4-16.5s-0.1-1.3-0.9-0.2c-0.7,1.1-1.2,3.9-1.2,3.9c-7.4-0.4-12.8,0.3-12.8,0.3
	C9.6,2,8.2,0.8,7.5,1C6.9,1.3,6.8,4.4,6.8,4.4L6.5,18.5C13.1,17.5,19.9,17.1,26.6,17.1z"/>
<path d="M12.8,14c0-0.1,1,0.7,1.4,0.9c0.4,0.2,0.6,0.4,0.6,0.6c0,0.2-0.3,0.3-0.6,0.3c-0.4,0-0.9-0.1-1-0.3c0,0,0.6,0,0.9,0h0.3
	C14.4,15.6,13,14.5,12.8,14z"/>
<path d="M20.2,14.1c0,0-1,1.3-1.1,1.3c0,0.1-0.2,0.3,0.2,0.3s1.1-0.2,1.2-0.3c0.1-0.1,0.1-0.2-0.1-0.2c-0.2,0-0.7,0-1,0.1L20.2,14.1
	C20.3,14.1,20.3,14,20.2,14.1z"/>
<path d="M17.1,20.2c0,0,0.8-0.4,1.1-1c0.3-0.7,0-0.9-0.4-1c-0.5-0.1-1.3,0-1.7,0.3c-0.4,0.4-0.3,0.7-0.1,1
	C16.2,19.7,16.8,20.1,17.1,20.2z"/>
<path class="st1" d="M16.7,21.5c0,0-0.2,0.4-0.5,0.6c-0.2,0.2-0.6,0.4-1,0.4c-0.6,0-1.1-0.2-1.5-0.4c-0.2-0.1-0.4-0.3-0.5-0.4
	c-0.2-0.2-0.4-0.3-0.4-0.3s0.7,4.1,2.6,4.7c1.8,0.6,2.1-0.7,2.2-1.1c0-0.3,0-2.1-0.8-3.2C16.8,21.4,16.8,21.6,16.7,21.5z"/>
<g>
	<path d="M15.1,22.6C15.1,22.6,15,22.6,15.1,22.6c-1.3,0-2.3-1.4-2.3-1.4c0-0.1,0-0.2,0-0.2c0.1,0,0.2,0,0.2,0c0,0,1,1.3,2.1,1.3
		c0,0,0,0,0,0c0.6,0,1.1-0.3,1.6-1l0.1-0.2l0.1,0.2c0,0,0.4,0.8,1,0.8c0.5,0,1.1-0.4,1.6-1.3c0-0.1,0.1-0.1,0.2,0
		c0.1,0,0.1,0.1,0,0.2c-0.6,1-1.3,1.4-1.9,1.4c-0.6,0-0.9-0.5-1.1-0.8C16.3,22.3,15.7,22.6,15.1,22.6z"/>
</g>
<path class="st1" d="M26.6,18.9c0,0-2.5,2.2-5.1,5.2S16.2,29,16.2,29c-0.2-0.5-1.6-1.5-1.6-1.5s-3.1-2.1-5.2-3.8
	c-1.2-1-2.3-2.2-3.1-3c-0.3,0-1.1-0.1-2-0.1c4.7,7,12,8.8,12,8.8c0.9-0.1,3.3-1.9,5.1-3.3c1.8-1.4,4.8-4.5,5.9-5.9
	c0.6-0.7,0.9-1.4,1.1-2C27.3,18.6,26.6,18.9,26.6,18.9z"/>
<g>
	<path class="st2" d="M92.6,29.6c-0.8-1-1.2-2.5-1.2-4.4v-6.3c0-1.9,0.4-3.4,1.2-4.4c0.8-1,2.2-1.5,4.1-1.5c1.9,0,3.2,0.4,4,1.3
		c0.8,0.9,1.2,2.1,1.2,3.8v1.5H98v-1.8c0-0.7-0.1-1.2-0.2-1.6c-0.1-0.4-0.5-0.5-1.1-0.5c-0.6,0-0.9,0.2-1.1,0.6
		c-0.2,0.4-0.3,0.9-0.3,1.6v8.3c0,0.7,0.1,1.2,0.3,1.6c0.2,0.4,0.5,0.6,1.1,0.6c0.5,0,0.9-0.2,1-0.6c0.2-0.4,0.2-0.9,0.2-1.6v-1.8
		h3.9v1.5c0,1.6-0.4,2.9-1.2,3.9c-0.8,0.9-2.1,1.4-4,1.4C94.8,31.1,93.4,30.6,92.6,29.6z"/>
	<path class="st2" d="M106.5,13.2h4.5l3.3,17.6h-3.6l-0.6-3.7h-2.6l-0.6,3.7h-3.7L106.5,13.2z M109.8,24.8l-0.9-6.9l-0.9,6.9H109.8z
		"/>
	<path class="st2" d="M117.1,16.1h-2.7v-2.9h9.3v2.9h-2.7v14.7h-4V16.1z"/>
	<path class="st2" d="M130.9,13.2h6.9v1.8h-4.4v5.8h3.6v1.7h-3.6v6.4h4.5v1.8h-7V13.2z"/>
	<path class="st2" d="M139.8,13.2h1.7l5.1,11.7V13.2h2.1v17.6h-1.6l-5.1-12v12h-2.1V13.2z"/>
	<path class="st2" d="M151.2,13.2h6.9v1.8h-4.4v5.8h3.6v1.7h-3.6v6.4h4.5v1.8h-7V13.2z"/>
	<path class="st2" d="M160.1,13.2h3.6c1.8,0,3.1,0.4,4,1.1c0.8,0.7,1.3,1.9,1.3,3.6c0,2.3-0.7,3.6-2.2,4.1l2.5,8.8h-2.4l-2.3-8.3
		h-1.9v8.3h-2.5V13.2z M163.6,20.8c1.1,0,1.8-0.2,2.3-0.6c0.5-0.4,0.7-1.2,0.7-2.3c0-0.7-0.1-1.3-0.2-1.7c-0.2-0.4-0.4-0.7-0.9-0.9
		c-0.4-0.2-1-0.3-1.7-0.3h-1.1v5.8H163.6z"/>
	<path class="st2" d="M172.2,29.5c-0.7-1-1.1-2.5-1.1-4.5v-5.9c0-1.4,0.1-2.5,0.4-3.4c0.3-0.9,0.8-1.5,1.5-2
		c0.7-0.5,1.7-0.7,2.9-0.7c1.6,0,2.8,0.4,3.6,1.2c0.7,0.8,1.1,2.1,1.1,3.9v0.7h-2.3v-0.5c0-0.8-0.1-1.5-0.2-1.9
		c-0.1-0.5-0.3-0.8-0.7-1c-0.3-0.2-0.8-0.3-1.5-0.3c-0.7,0-1.2,0.2-1.5,0.5s-0.6,0.7-0.7,1.2c-0.1,0.5-0.1,1.2-0.1,2.1v6.5
		c0,1.3,0.2,2.3,0.5,2.9c0.3,0.6,1,0.9,1.9,0.9c0.9,0,1.6-0.3,1.9-1c0.3-0.6,0.5-1.7,0.5-3.1v-1.2h-2.3v-1.7h4.5v8.7h-1.6l-0.2-2
		c-0.6,1.5-1.6,2.2-3.2,2.2C174,31,172.9,30.5,172.2,29.5z"/>
	<path class="st2" d="M185.6,24.6l-3.9-11.4h2.3l2.7,8.5l2.7-8.5h2.3L188,24.6v6.2h-2.4V24.6z"/>
</g>
</svg>
